<?xml version="1.0" encoding="UTF-8"?>
<svg id="Layer_2" data-name="Layer 2" xmlns="http://www.w3.org/2000/svg" viewBox="0 0 488 482.01">
  <defs>
    <style>
      .cls-1 {
        fill: #c9c9d3;
        stroke-width: 0px;
      }
    </style>
  </defs>
  <g id="Layer_1-2" data-name="Layer 1">
    <g>
      <path class="cls-1" d="M353.99,370.1c-51.43-2.41-102.39-4.8-154.03-7.22-.09,20.18-.18,39.63-.27,59.15,55.35,2.44,109.47,4.82,164.21,7.23-3.41-20.34-6.6-39.41-9.91-59.16Z"/>
      <path class="cls-1" d="M264.28,234.95c-46.13-3.56-92.29-6.72-138.45-9.94-2.05-.14-4.14.08-7.22.16,26.14,42.07,51.55,83.14,77.31,123.99,1.41,2.23,5.66,3.59,8.67,3.75,45.66,2.34,91.33,4.42,137,6.53,1.94.09,3.9-.08,6.6-.15-.98-1.96-1.49-3.23-2.21-4.37-23.97-38.25-47.86-76.54-72.14-114.59-1.76-2.77-6.19-5.12-9.56-5.38Z"/>
      <path class="cls-1" d="M330.97,202.29c-16.56,10.12-32.77,20.03-49.67,30.36,26.09,41.47,51.76,82.28,77.46,123.13,19.31-5.56,38.04-10.95,56.83-16.36-27.74-44.96-55.98-90.72-84.62-137.13Z"/>
      <path class="cls-1" d="M244,0C109.24,0,0,109.24,0,244c0,37.89,8.63,73.75,24.04,105.75.39-.91.88-1.85,1.48-2.84,11.49-18.79,22.3-38,33.69-56.86,2.61-4.31,2.61-7.45-.19-11.63-6.28-9.36-12.07-19.05-17.97-28.66-5.51-8.96-4.98-10.28,5.18-13.94,19.27-6.94,38.52-13.89,58.36-21.05-6.76-23.25-13.3-45.74-19.83-68.22.88-1.5,1.76-3,2.64-4.5,60.01.92,120.03,1.84,180.04,2.75,1,.59,2,1.17,3,1.76,2.48,25.09,4.96,50.19,7.55,76.38,16.83-10.33,32.41-19.65,47.73-29.41,6.15-3.92,9.67-3.55,13.74,3.23,16.64,27.75,33.96,55.09,50.88,82.68,13.43,21.9,26.63,43.93,39.93,65.9-.88,1.5-1.76,3-2.64,4.5-21.33,4.97-42.65,9.94-64.3,14.98,3.76,22.49,7.2,43.94,11,65.33,1.23,6.94-.81,9.75-8.02,9.29-11.84-.76-23.72-.83-35.54-1.69-5.04-.37-7.81,1.29-10.3,5.64-7.4,12.94-15.01,25.75-22.55,38.61,108.82-24.54,190.09-121.78,190.09-238.01C488,109.24,378.76,0,244,0Z"/>
      <path class="cls-1" d="M96.31,152.58c5.57,18.58,11.07,35.93,15.86,53.48,1.61,5.88,4.02,8.29,10.33,8.68,45.84,2.9,91.66,6.21,137.48,9.36,2.44.17,4.91.08,7.93.11-2.41-23.64-4.74-46.49-7.08-69.4-55.12-.75-109.14-1.49-164.52-2.24Z"/>
      <path class="cls-1" d="M136.44,384.91c17.11-9.66,33.89-19.13,51.54-29.09-27.42-44.13-54.24-87.3-81.38-130.97-18.85,6.74-37.24,13.32-56.51,20.21,29,46.96,57.48,93.08,86.35,139.85Z"/>
    </g>
  </g>
</svg>