<?xml version="1.0" encoding="UTF-8"?>
<svg id="Layer_2" data-name="Layer 2" xmlns="http://www.w3.org/2000/svg" viewBox="0 0 300.28 256.89">
  <defs>
    <style>
      .cls-1 {
        fill: #5490cc;
      }

      .cls-2 {
        fill: #58595b;
      }
    </style>
  </defs>
  <g id="Layer_1-2" data-name="Layer 1">
    <path class="cls-2" d="m109.91,141.7c-9.7,0-17.65,2.92-23.95,8.75-6.3,5.96-9.45,14.98-9.45,27.3,0,25.84,16.01,36.05,33.4,36.05s27.85-8.88,30.88-24.65h-18.15c-1.64,5.7-4.28,8.48-11.47,8.48-8.95,0-13.99-4.11-15.12-14.58h45.25c.25-1.59.38-3.05.38-4.51,0-12.86-2.9-22.13-8.82-28.1-5.92-5.83-13.49-8.75-22.94-8.75m-13.86,29.82c.88-8.61,5.42-13.39,13.36-13.39,8.7,0,12.23,5.43,12.73,13.39h-26.09Z"/>
    <path class="cls-1" d="m151.25,74.52v57.07h20.67v-57.07c0-29.7,24.16-53.85,53.85-53.85s53.85,24.15,53.85,53.85v107.85c0,29.69-24.15,53.85-53.85,53.85s-53.59-23.9-53.85-53.37v-1.82c0-15.12,8.19-20.92,18.78-20.92,1.39,0,3.15.13,5.29.38v-17.39c-1.64-.38-3.4-.63-5.04-.63-9.7,0-16.01,6.18-18.53,16.76h-.5v-17.52h-20.67v33.67h0v7c0,41.09,33.43,74.52,74.52,74.52s74.51-33.43,74.51-74.52v-107.85c0-20.55-8.36-39.17-21.85-52.67C264.94,8.36,246.31,0,225.77,0c-41.09,0-74.52,33.43-74.52,74.52"/>
    <polygon class="cls-2" points="69.94 141.7 0 141.7 0 159.33 44.4 159.33 0 195.86 0 213.65 69.94 213.65 69.94 195.86 24.82 195.86 69.94 159.33 69.94 141.7"/>
    <path class="cls-2" d="m17.52,229.93c0,5.19-3.44,8.65-8.6,8.65H1.22v-17.21h7.7c5.16,0,8.6,3.42,8.6,8.56m-4.95,0c0-2.77-1.42-4.6-3.53-4.6h-3.02v9.3h3.02c2.12,0,3.53-1.88,3.53-4.7Z"/>
    <polygon class="cls-2" points="37.66 234.63 37.66 238.58 24.73 238.58 24.73 221.37 37.49 221.37 37.49 225.33 29.52 225.33 29.52 227.93 36.61 227.93 36.61 231.88 29.52 231.88 29.52 234.63 37.66 234.63"/>
    <path class="cls-2" d="m62,229.98c0,5.21-3.44,8.84-8.86,8.84s-9.3-3.53-9.3-8.84,3.65-8.84,9.3-8.84c2.65,0,4.93.77,6.44,2.02l-3.14,2.98c-.58-.65-1.67-1.05-3.23-1.05-2.65,0-4.42,1.95-4.42,4.88s1.74,4.88,4.37,4.88c2,0,3.37-1,3.77-2.58h-3.37v-3.95h8.37c.05.56.07,1.09.07,1.65"/>
    <path class="cls-2" d="m75.72,232.95h-2.09v5.63h-4.79v-17.21h8.07c3.77,0,6.28,2.32,6.28,5.79,0,2.09-1.02,3.79-2.77,4.79l4.25,6.63h-5.6l-3.35-5.63Zm-2.09-3.95h2.3c1.39,0,2.32-.74,2.32-1.84s-.72-1.84-1.86-1.84h-2.77v3.67Z"/>
    <polygon class="cls-2" points="104.16 234.63 104.16 238.58 91.23 238.58 91.23 221.37 104 221.37 104 225.33 96.02 225.33 96.02 227.93 103.11 227.93 103.11 231.88 96.02 231.88 96.02 234.63 104.16 234.63"/>
    <polygon class="cls-2" points="124.53 234.63 124.53 238.58 111.6 238.58 111.6 221.37 124.37 221.37 124.37 225.33 116.39 225.33 116.39 227.93 123.48 227.93 123.48 231.88 116.39 231.88 116.39 234.63 124.53 234.63"/>
    <path class="cls-2" d="m131.48,236.51l1.77-3.21c1.6,1.16,3.21,1.56,4.6,1.56,1.58,0,2.35-.3,2.35-1.07,0-.86-1.07-1.19-2.74-1.63l-.81-.21c-3.23-.84-5.44-2.14-5.44-5.09,0-3.42,2.74-5.72,6.88-5.72,2.07,0,4.28.58,6.23,1.98l-2.07,3.33c-1.35-.91-2.63-1.35-4.09-1.35-1.23,0-2,.37-2,.98,0,.81,1.09,1.14,2.63,1.53l.79.21c2.84.74,5.58,2.4,5.58,5.51,0,3.3-2.84,5.49-7.05,5.49-2.53,0-4.84-.84-6.63-2.3"/>
    <polygon class="cls-1" points="13.57 243.92 13.57 256.72 10.54 256.72 10.54 251.44 4.27 251.44 4.27 256.72 1.22 256.72 1.22 243.92 4.27 243.92 4.27 248.93 10.54 248.93 10.54 243.92 13.57 243.92"/>
    <path class="cls-1" d="m36.39,250.31c0-3.94,2.77-6.57,6.92-6.57s6.87,2.63,6.87,6.57-2.77,6.57-6.87,6.57-6.92-2.63-6.92-6.57m10.66,0c0-2.44-1.5-4.06-3.74-4.06s-3.77,1.63-3.77,4.06,1.5,4.07,3.77,4.07,3.74-1.63,3.74-4.07Z"/>
    <polygon class="cls-1" points="82.02 246.42 78.23 246.42 78.23 256.72 75.19 256.72 75.19 246.42 71.4 246.42 71.4 243.92 82.02 243.92 82.02 246.42"/>
    <polygon class="cls-1" points="113.69 254.21 113.69 256.72 104.44 256.72 104.44 243.92 113.55 243.92 113.55 246.42 107.48 246.42 107.48 248.98 112.95 248.98 112.95 251.49 107.48 251.49 107.48 254.21 113.69 254.21"/>
    <polygon class="cls-1" points="145.15 254.21 145.15 256.72 136.68 256.72 136.68 243.92 139.72 243.92 139.72 254.21 145.15 254.21"/>
  </g>
</svg>